<svg width="30" height="62" viewBox="0 0 30 62" fill="none" xmlns="http://www.w3.org/2000/svg">
<path d="M10 5V5C5.11847 5 1.70353 9.82667 3.3282 14.4299L5.48745 20.5478C5.82767 21.5117 6.03971 22.5163 6.11812 23.5355L6.38641 27.0232C6.73264 31.5241 10.4858 34.9996 15 34.9996V34.9996M20 5V5C24.8815 5 28.2965 9.82666 26.6718 14.4299L24.5126 20.5478C24.1723 21.5117 23.9603 22.5163 23.8819 23.5355L23.6136 27.0232C23.2674 31.5241 19.5142 34.9996 15 34.9996V34.9996M15 34.9996V40.2495V48V49.1246C15 51.5232 16.2766 53.7405 18.351 54.9448V54.9448C18.8423 55.23 19.3677 55.4519 19.9148 55.6051L24 56.7493M24 56.7493V52.6244M24 56.7493V60M12.6553 25.8587V25.8587C11.0998 24.7699 10.4986 22.7535 11.2038 20.9906V20.9906C12.5745 17.5637 17.4255 17.5637 18.7962 20.9906V20.9906C19.5014 22.7535 18.9002 24.7699 17.3447 25.8587V25.8587C15.9369 26.8442 14.0631 26.8442 12.6553 25.8587Z" stroke="#222222" stroke-width="3" stroke-linecap="round"/>
<rect x="10" width="3" height="11" rx="1.5" fill="#222222"/>
<rect x="17" width="3" height="11" rx="1.5" fill="#222222"/>
<rect width="1" height="2" rx="0.5" transform="matrix(-1 0 0 1 12 5)" fill="#FCFCFC"/>
<rect x="18" y="5" width="1" height="2" rx="0.5" fill="#FCFCFC"/>
</svg>
