<svg width="30" height="62" viewBox="0 0 30 62" fill="none" xmlns="http://www.w3.org/2000/svg">
<path d="M10 6.5C10.8284 6.5 11.5 5.82843 11.5 5C11.5 4.17157 10.8284 3.5 10 3.5V6.5ZM20 3.5C19.1716 3.5 18.5 4.17157 18.5 5C18.5 5.82843 19.1716 6.5 20 6.5V3.5ZM15 36.4996C15.8284 36.4996 16.5 35.828 16.5 34.9996C16.5 34.1712 15.8284 33.4996 15 33.4996L15 36.4996ZM25.5 52.6244C25.5 51.796 24.8284 51.1244 24 51.1244C23.1716 51.1244 22.5 51.796 22.5 52.6244H25.5ZM22.5 60C22.5 60.8284 23.1716 61.5 24 61.5C24.8284 61.5 25.5 60.8284 25.5 60H22.5ZM23.6136 27.0232L22.118 26.9081L23.6136 27.0232ZM19.1041 53.6475C18.3877 53.2316 17.4697 53.4752 17.0538 54.1917C16.6378 54.9081 16.8814 55.8261 17.5979 56.242L19.1041 53.6475ZM24.5126 20.5478L25.927 21.047L24.5126 20.5478ZM23.8819 23.5355L25.3775 23.6505L23.8819 23.5355ZM18.351 54.9448L19.1041 53.6475L18.351 54.9448ZM19.9148 55.6051L19.5102 57.0495L19.9148 55.6051ZM6.11812 23.5355L4.62254 23.6505L6.11812 23.5355ZM3.3282 14.4299L1.91372 14.9291L3.3282 14.4299ZM1.91372 14.9291L4.07296 21.047L6.90193 20.0485L4.74269 13.9307L1.91372 14.9291ZM25.927 21.047L28.0863 14.9291L25.2573 13.9307L23.0981 20.0485L25.927 21.047ZM13.5 34.9996V40.2495H16.5V34.9996H13.5ZM13.5 40.2495V48H16.5V40.2495H13.5ZM13.5 48V49.1246H16.5V48H13.5ZM25.5 56.7493V52.6244H22.5V56.7493H25.5ZM22.5 56.7493V60H25.5V56.7493H22.5ZM19.5102 57.0495L23.5954 58.1937L24.4046 55.3049L20.3193 54.1607L19.5102 57.0495ZM4.62254 23.6505L4.89083 27.1382L7.88199 26.9081L7.6137 23.4205L4.62254 23.6505ZM25.1092 27.1382L25.3775 23.6505L22.3863 23.4205L22.118 26.9081L25.1092 27.1382ZM15 36.4996C20.298 36.4996 24.7028 32.4206 25.1092 27.1382L22.118 26.9081C21.8319 30.6275 18.7304 33.4996 15 33.4996L15 36.4996ZM4.89083 27.1382C5.29718 32.4206 9.702 36.4996 15 36.4996L15 33.4996C11.2696 33.4996 8.16811 30.6275 7.88199 26.9081L4.89083 27.1382ZM13.5 49.1246C13.5 52.0578 15.0612 54.7693 17.5979 56.242L19.1041 53.6475C17.4921 52.7117 16.5 50.9886 16.5 49.1246H13.5ZM10.577 24.4743C11.9938 28.7249 18.0062 28.7249 19.423 24.4743L16.577 23.5257C16.0718 25.0412 13.9282 25.0412 13.423 23.5257L10.577 24.4743ZM28.0863 14.9291C30.0554 9.34996 25.9165 3.5 20 3.5V6.5C23.8466 6.5 26.5375 10.3034 25.2573 13.9307L28.0863 14.9291ZM23.0981 20.0485C22.7141 21.1365 22.4748 22.2701 22.3863 23.4205L25.3775 23.6505C25.4458 22.7624 25.6306 21.887 25.927 21.047L23.0981 20.0485ZM17.5979 56.242C18.1987 56.5908 18.8412 56.8621 19.5102 57.0495L20.3193 54.1607C19.8942 54.0416 19.4859 53.8692 19.1041 53.6475L17.5979 56.242ZM4.07296 21.047C4.36944 21.887 4.55421 22.7624 4.62254 23.6505L7.6137 23.4205C7.52521 22.2701 7.28591 21.1365 6.90193 20.0485L4.07296 21.047ZM10 3.5C4.08354 3.5 -0.0554017 9.34997 1.91372 14.9291L4.74269 13.9307C3.46246 10.3034 6.1534 6.5 10 6.5V3.5Z" fill="#222222"/>
<rect x="10" width="3" height="11" rx="1.5" fill="#222222"/>
<rect x="17" width="3" height="11" rx="1.5" fill="#222222"/>
<rect x="11" y="2" width="1" height="5" rx="0.5" fill="#FCFCFC"/>
<rect x="18" y="2" width="1" height="5" rx="0.5" fill="#FCFCFC"/>
</svg>
