<svg xmlns="http://www.w3.org/2000/svg" width="116" height="18" viewBox="0 0 116 18" fill="none">
  <path d="M18.006 1.69811C19.8689 1.69811 21.3187 2.24906 22.3554 3.35094C23.392 4.43774 23.9103 6.01509 23.9103 8.08302V17.8189H20.2596V8.19623C20.2596 7.07925 19.9666 6.24151 19.3807 5.68302C18.8098 5.10943 18.0511 4.82264 17.1046 4.82264C16.0679 4.82264 15.2416 5.12453 14.6256 5.7283C14.0097 6.31698 13.7017 7.21509 13.7017 8.42264V17.8189H10.0509V8.19623C10.0509 7.07925 9.78047 6.24151 9.23962 5.68302C8.69876 5.10943 7.9626 4.82264 7.03112 4.82264C6.00951 4.82264 5.19071 5.12453 4.57474 5.7283C3.95876 6.31698 3.65078 7.21509 3.65078 8.42264V17.8189H0V1.96981H3.5381V3.91698C4.01886 3.20755 4.65737 2.66415 5.45363 2.28679C6.24989 1.89434 7.16634 1.69811 8.20298 1.69811C9.28469 1.69811 10.2312 1.90189 11.0425 2.30943C11.8538 2.70189 12.4772 3.27547 12.9129 4.03019C13.4538 3.27547 14.1599 2.70189 15.0313 2.30943C15.9177 1.90189 16.9093 1.69811 18.006 1.69811Z" fill="#061013"/>
  <path d="M33.3686 15.1698C33.9996 15.1698 34.5555 15.0792 35.0363 14.8981C35.532 14.7019 35.9903 14.4 36.4109 13.9925L38.2814 16.0302C37.1396 17.3434 35.4719 18 33.2785 18C31.9113 18 30.7019 17.7358 29.6502 17.2075C28.5986 16.6642 27.7873 15.917 27.2164 14.966C26.6455 14.0151 26.36 12.9358 26.36 11.7283C26.36 10.5358 26.638 9.46415 27.1938 8.51321C27.7647 7.54717 28.5385 6.8 29.515 6.2717C30.5066 5.7283 31.6183 5.4566 32.8503 5.4566C34.0071 5.4566 35.0588 5.70566 36.0053 6.20377C36.9518 6.68679 37.703 7.39623 38.2589 8.33208C38.8298 9.25283 39.1152 10.3472 39.1152 11.6151L30.146 13.3585C30.4014 13.9623 30.7995 14.4151 31.3404 14.717C31.8963 15.0189 32.5724 15.1698 33.3686 15.1698ZM32.8503 8.1283C31.9639 8.1283 31.2428 8.41509 30.6869 8.98868C30.131 9.56226 29.838 10.3547 29.808 11.366L35.7123 10.2113C35.5471 9.57736 35.209 9.0717 34.6982 8.69434C34.1874 8.31698 33.5714 8.1283 32.8503 8.1283ZM33.7743 0.815095H37.5602L33.4813 4.07547H30.7319L33.7743 0.815095Z" fill="#061013"/>
  <path d="M53.8278 1.01887V17.8189H50.47V16.4151C49.5986 17.4717 48.3366 18 46.684 18C45.5422 18 44.5056 17.7434 43.5741 17.2302C42.6576 16.717 41.9365 15.9849 41.4107 15.034C40.8848 14.083 40.6219 12.9811 40.6219 11.7283C40.6219 10.4755 40.8848 9.37358 41.4107 8.42264C41.9365 7.4717 42.6576 6.73962 43.5741 6.22642C44.5056 5.71321 45.5422 5.4566 46.684 5.4566C48.2315 5.4566 49.4409 5.94717 50.3123 6.9283V1.01887H53.8278ZM47.2925 15.1019C48.1789 15.1019 48.915 14.8 49.501 14.1962C50.0869 13.5774 50.3799 12.7547 50.3799 11.7283C50.3799 10.7019 50.0869 9.88679 49.501 9.28302C48.915 8.66415 48.1789 8.35472 47.2925 8.35472C46.3911 8.35472 45.6474 8.66415 45.0615 9.28302C44.4755 9.88679 44.1826 10.7019 44.1826 11.7283C44.1826 12.7547 44.4755 13.5774 45.0615 14.1962C45.6474 14.8 46.3911 15.1019 47.2925 15.1019Z" fill="#061013"/>
  <path d="M57.0816 5.63774H60.5971V17.8189H57.0816V5.63774ZM58.8394 3.93962C58.1933 3.93962 57.6675 3.75094 57.2619 3.37359C56.8562 2.99623 56.6534 2.5283 56.6534 1.96981C56.6534 1.41132 56.8562 0.943397 57.2619 0.566038C57.6675 0.18868 58.1933 0 58.8394 0C59.4854 0 60.0112 0.181132 60.4169 0.543397C60.8225 0.905661 61.0253 1.35849 61.0253 1.90189C61.0253 2.49057 60.8225 2.98113 60.4169 3.37359C60.0112 3.75094 59.4854 3.93962 58.8394 3.93962Z" fill="#061013"/>
  <path d="M70.9361 1.96981C72.3333 1.96981 73.5427 2.20377 74.5643 2.6717C75.601 3.13962 76.3972 3.80377 76.9531 4.66415C77.509 5.52453 77.7869 6.5434 77.7869 7.72076C77.7869 8.88302 77.509 9.90189 76.9531 10.7774C76.3972 11.6377 75.601 12.3019 74.5643 12.7698C73.5427 13.2226 72.3333 13.4491 70.9361 13.4491H67.7586V17.8189H64.1078V1.96981H70.9361ZM70.7333 10.4604C71.83 10.4604 72.6638 10.2264 73.2347 9.75849C73.8056 9.27547 74.0911 8.59623 74.0911 7.72076C74.0911 6.83019 73.8056 6.15094 73.2347 5.68302C72.6638 5.2 71.83 4.95849 70.7333 4.95849H67.7586V10.4604H70.7333Z" fill="#061013"/>
  <path d="M84.7149 18C83.3477 18 82.281 17.6377 81.5148 16.9132C80.7486 16.1736 80.3655 15.1321 80.3655 13.7887V1.01887H83.8811V13.5849C83.8811 14.0981 84.0088 14.4981 84.2642 14.7849C84.5346 15.0566 84.9102 15.1925 85.3909 15.1925C85.5712 15.1925 85.7515 15.1698 85.9318 15.1245C86.1271 15.0792 86.2773 15.0264 86.3825 14.966L86.5403 17.7057C85.9543 17.9019 85.3459 18 84.7149 18Z" fill="#061013"/>
  <path d="M100.351 5.63774V17.8189H96.9928V16.4151C96.1214 17.4717 94.8594 18 93.2068 18C92.065 18 91.0283 17.7434 90.0968 17.2302C89.1804 16.717 88.4592 15.9849 87.9334 15.034C87.4076 14.083 87.1447 12.9811 87.1447 11.7283C87.1447 10.4755 87.4076 9.37358 87.9334 8.42264C88.4592 7.4717 89.1804 6.73962 90.0968 6.22642C91.0283 5.71321 92.065 5.4566 93.2068 5.4566C94.7542 5.4566 95.9636 5.94717 96.835 6.9283V5.63774H100.351ZM93.8152 15.1019C94.7016 15.1019 95.4378 14.8 96.0237 14.1962C96.6096 13.5774 96.9026 12.7547 96.9026 11.7283C96.9026 10.7019 96.6096 9.88679 96.0237 9.28302C95.4378 8.66415 94.7016 8.35472 93.8152 8.35472C92.9138 8.35472 92.1701 8.66415 91.5842 9.28302C90.9983 9.88679 90.7053 10.7019 90.7053 11.7283C90.7053 12.7547 90.9983 13.5774 91.5842 14.1962C92.1701 14.8 92.9138 15.1019 93.8152 15.1019Z" fill="#061013"/>
  <path d="M110.975 5.4566C112.477 5.4566 113.686 5.90943 114.603 6.81509C115.534 7.72075 116 9.06415 116 10.8453V17.8189H112.484V11.3887C112.484 10.4226 112.274 9.70566 111.853 9.23774C111.433 8.75472 110.824 8.51321 110.028 8.51321C109.142 8.51321 108.436 8.79245 107.91 9.35094C107.384 9.89434 107.121 10.7094 107.121 11.7962V17.8189H103.605V5.63774H106.963V7.06415C107.429 6.55094 108.007 6.15849 108.698 5.88679C109.39 5.6 110.148 5.4566 110.975 5.4566Z" fill="#061013"/>
</svg>