<svg width="272" height="309" viewBox="0 0 272 309" fill="none" xmlns="http://www.w3.org/2000/svg">
<path d="M187.494 53C187.494 53 155.731 82.0417 148.85 107.066C141.69 133.103 155.668 175.875 155.668 175.875C155.668 175.875 164.981 219.508 155.54 244.654C142.551 279.252 83.75 306.309 83.75 306.309" stroke="black" stroke-width="4" stroke-dasharray="20 20"/>
<path d="M195.412 18.3017L187.732 22.7356C186.775 23.2879 186.448 24.5111 187 25.4676L191.434 33.1474M202.302 51.971L206.736 59.6507C207.288 60.6073 208.511 60.935 209.468 60.3827L217.147 55.9488M235.971 45.081L243.651 40.6471C244.607 40.0949 244.935 38.8717 244.383 37.9151L239.949 30.2354M229.081 11.4118L224.647 3.73206C224.095 2.77547 222.872 2.44772 221.915 3.00001L214.235 7.43391M210.257 22.2796C205.059 25.2806 203.279 31.9273 206.28 37.1253C209.281 42.3233 215.927 44.1042 221.125 41.1032C226.323 38.1021 228.104 31.4555 225.103 26.2575C222.102 21.0595 215.455 19.2785 210.257 22.2796Z" stroke="black" stroke-width="5"/>
</svg>
